<svg width="668" height="526" viewBox="0 0 668 526" fill="none" xmlns="http://www.w3.org/2000/svg">
<path d="M330 0L633.109 525H26.8911L330 0Z" fill="#700EBC"/>
<path d="M330 0L589.808 450H70.1924L330 0Z" fill="#1B22CE"/>
<path d="M330 0L546.506 375H113.494L330 0Z" fill="#16D8CC"/>
<path d="M330 0L503.205 300H156.795L330 0Z" fill="#0EBF35"/>
<path d="M330 0L459.904 225H200.096L330 0Z" fill="#FA8417"/>
<path d="M330 0L416.603 150H243.397L330 0Z" fill="#80370E"/>
<path d="M330 0L373.301 75H286.699L330 0Z" fill="#D20B0B"/>
<path d="M270.324 492V480.364H274.983C275.839 480.364 276.553 480.491 277.125 480.744C277.697 480.998 278.127 481.35 278.415 481.801C278.703 482.248 278.847 482.763 278.847 483.347C278.847 483.801 278.756 484.201 278.574 484.545C278.392 484.886 278.142 485.167 277.824 485.386C277.509 485.602 277.15 485.756 276.744 485.847V485.96C277.188 485.979 277.602 486.104 277.989 486.335C278.379 486.566 278.695 486.89 278.938 487.307C279.18 487.72 279.301 488.212 279.301 488.784C279.301 489.402 279.148 489.953 278.841 490.438C278.538 490.919 278.089 491.299 277.494 491.58C276.9 491.86 276.167 492 275.295 492H270.324ZM272.784 489.989H274.79C275.475 489.989 275.975 489.858 276.29 489.597C276.604 489.331 276.761 488.979 276.761 488.54C276.761 488.218 276.684 487.934 276.528 487.688C276.373 487.441 276.152 487.248 275.864 487.108C275.58 486.968 275.241 486.898 274.847 486.898H272.784V489.989ZM272.784 485.233H274.608C274.945 485.233 275.244 485.174 275.506 485.057C275.771 484.936 275.979 484.765 276.131 484.545C276.286 484.326 276.364 484.062 276.364 483.756C276.364 483.335 276.214 482.996 275.915 482.739C275.619 482.481 275.199 482.352 274.653 482.352H272.784V485.233ZM283.345 492.165C282.788 492.165 282.292 492.068 281.857 491.875C281.421 491.678 281.076 491.388 280.822 491.006C280.572 490.619 280.447 490.138 280.447 489.562C280.447 489.078 280.536 488.67 280.714 488.341C280.893 488.011 281.135 487.746 281.442 487.545C281.749 487.345 282.097 487.193 282.487 487.091C282.881 486.989 283.294 486.917 283.726 486.875C284.233 486.822 284.643 486.773 284.953 486.727C285.264 486.678 285.489 486.606 285.629 486.511C285.769 486.417 285.839 486.277 285.839 486.091V486.057C285.839 485.697 285.726 485.419 285.499 485.222C285.275 485.025 284.957 484.926 284.544 484.926C284.108 484.926 283.762 485.023 283.504 485.216C283.247 485.405 283.076 485.644 282.993 485.932L280.754 485.75C280.868 485.22 281.091 484.761 281.425 484.375C281.758 483.985 282.188 483.686 282.714 483.477C283.245 483.265 283.858 483.159 284.555 483.159C285.04 483.159 285.504 483.216 285.947 483.33C286.394 483.443 286.79 483.619 287.135 483.858C287.483 484.097 287.758 484.403 287.959 484.778C288.16 485.15 288.26 485.595 288.26 486.114V492H285.964V490.79H285.896C285.756 491.062 285.569 491.303 285.334 491.511C285.099 491.716 284.817 491.877 284.487 491.994C284.158 492.108 283.777 492.165 283.345 492.165ZM284.038 490.494C284.394 490.494 284.709 490.424 284.982 490.284C285.254 490.14 285.468 489.947 285.624 489.705C285.779 489.462 285.857 489.187 285.857 488.881V487.955C285.781 488.004 285.677 488.049 285.544 488.091C285.415 488.129 285.269 488.165 285.107 488.199C284.944 488.229 284.781 488.258 284.618 488.284C284.455 488.307 284.307 488.328 284.175 488.347C283.891 488.388 283.643 488.455 283.43 488.545C283.218 488.636 283.054 488.759 282.936 488.915C282.819 489.066 282.76 489.256 282.76 489.483C282.76 489.812 282.879 490.064 283.118 490.239C283.36 490.409 283.667 490.494 284.038 490.494ZM297.399 485.761L295.183 485.898C295.145 485.708 295.064 485.538 294.939 485.386C294.814 485.231 294.649 485.108 294.445 485.017C294.244 484.922 294.003 484.875 293.723 484.875C293.348 484.875 293.032 484.955 292.774 485.114C292.517 485.269 292.388 485.477 292.388 485.739C292.388 485.947 292.471 486.123 292.638 486.267C292.804 486.411 293.09 486.527 293.496 486.614L295.075 486.932C295.924 487.106 296.556 487.386 296.973 487.773C297.39 488.159 297.598 488.667 297.598 489.295C297.598 489.867 297.429 490.369 297.092 490.801C296.759 491.233 296.301 491.57 295.717 491.812C295.138 492.051 294.469 492.17 293.712 492.17C292.556 492.17 291.636 491.93 290.95 491.449C290.268 490.964 289.869 490.305 289.751 489.472L292.132 489.347C292.204 489.699 292.378 489.968 292.655 490.153C292.931 490.335 293.286 490.426 293.717 490.426C294.142 490.426 294.482 490.345 294.74 490.182C295.001 490.015 295.134 489.801 295.138 489.54C295.134 489.32 295.041 489.14 294.859 489C294.678 488.856 294.397 488.746 294.018 488.67L292.507 488.369C291.655 488.199 291.02 487.903 290.604 487.483C290.191 487.062 289.984 486.527 289.984 485.875C289.984 485.314 290.136 484.831 290.439 484.426C290.746 484.021 291.176 483.708 291.729 483.489C292.286 483.269 292.937 483.159 293.683 483.159C294.786 483.159 295.653 483.392 296.286 483.858C296.922 484.324 297.293 484.958 297.399 485.761ZM303.099 492.17C302.202 492.17 301.429 491.989 300.781 491.625C300.137 491.258 299.641 490.739 299.293 490.068C298.944 489.394 298.77 488.597 298.77 487.676C298.77 486.778 298.944 485.991 299.293 485.312C299.641 484.634 300.132 484.106 300.764 483.727C301.401 483.348 302.147 483.159 303.003 483.159C303.579 483.159 304.115 483.252 304.611 483.438C305.111 483.619 305.546 483.894 305.918 484.261C306.293 484.629 306.584 485.091 306.793 485.648C307.001 486.201 307.105 486.848 307.105 487.591V488.256H299.736V486.756H304.827C304.827 486.407 304.751 486.098 304.599 485.83C304.448 485.561 304.238 485.35 303.969 485.199C303.704 485.044 303.395 484.966 303.043 484.966C302.675 484.966 302.349 485.051 302.065 485.222C301.785 485.388 301.565 485.614 301.406 485.898C301.247 486.178 301.166 486.491 301.162 486.835V488.261C301.162 488.693 301.241 489.066 301.401 489.381C301.563 489.695 301.793 489.938 302.088 490.108C302.384 490.278 302.734 490.364 303.139 490.364C303.408 490.364 303.654 490.326 303.878 490.25C304.101 490.174 304.293 490.061 304.452 489.909C304.611 489.758 304.732 489.572 304.815 489.352L307.054 489.5C306.94 490.038 306.707 490.508 306.355 490.909C306.007 491.307 305.556 491.617 305.003 491.841C304.454 492.061 303.819 492.17 303.099 492.17ZM315.946 485.761L313.73 485.898C313.692 485.708 313.611 485.538 313.486 485.386C313.361 485.231 313.196 485.108 312.991 485.017C312.791 484.922 312.55 484.875 312.27 484.875C311.895 484.875 311.579 484.955 311.321 485.114C311.063 485.269 310.935 485.477 310.935 485.739C310.935 485.947 311.018 486.123 311.185 486.267C311.351 486.411 311.637 486.527 312.043 486.614L313.622 486.932C314.471 487.106 315.103 487.386 315.52 487.773C315.937 488.159 316.145 488.667 316.145 489.295C316.145 489.867 315.976 490.369 315.639 490.801C315.306 491.233 314.848 491.57 314.264 491.812C313.685 492.051 313.016 492.17 312.259 492.17C311.103 492.17 310.183 491.93 309.497 491.449C308.815 490.964 308.416 490.305 308.298 489.472L310.679 489.347C310.751 489.699 310.925 489.968 311.202 490.153C311.478 490.335 311.832 490.426 312.264 490.426C312.688 490.426 313.029 490.345 313.287 490.182C313.548 490.015 313.681 489.801 313.685 489.54C313.681 489.32 313.588 489.14 313.406 489C313.224 488.856 312.944 488.746 312.565 488.67L311.054 488.369C310.202 488.199 309.567 487.903 309.151 487.483C308.738 487.062 308.531 486.527 308.531 485.875C308.531 485.314 308.683 484.831 308.986 484.426C309.293 484.021 309.723 483.708 310.276 483.489C310.832 483.269 311.484 483.159 312.23 483.159C313.332 483.159 314.2 483.392 314.832 483.858C315.469 484.324 315.84 484.958 315.946 485.761ZM324.588 492.142C323.925 492.142 323.325 491.972 322.787 491.631C322.253 491.286 321.829 490.78 321.514 490.114C321.204 489.443 321.048 488.621 321.048 487.648C321.048 486.648 321.209 485.816 321.531 485.153C321.853 484.487 322.281 483.989 322.815 483.659C323.353 483.326 323.942 483.159 324.582 483.159C325.071 483.159 325.478 483.242 325.804 483.409C326.134 483.572 326.399 483.777 326.599 484.023C326.804 484.265 326.959 484.504 327.065 484.739H327.139V480.364H329.554V492H327.168V490.602H327.065C326.952 490.845 326.791 491.085 326.582 491.324C326.378 491.559 326.111 491.754 325.781 491.909C325.455 492.064 325.058 492.142 324.588 492.142ZM325.355 490.216C325.745 490.216 326.075 490.11 326.344 489.898C326.616 489.682 326.825 489.381 326.969 488.994C327.116 488.608 327.19 488.155 327.19 487.636C327.19 487.117 327.118 486.667 326.974 486.284C326.83 485.902 326.622 485.606 326.349 485.398C326.077 485.189 325.745 485.085 325.355 485.085C324.957 485.085 324.622 485.193 324.349 485.409C324.077 485.625 323.87 485.924 323.73 486.307C323.59 486.689 323.52 487.133 323.52 487.636C323.52 488.144 323.59 488.593 323.73 488.983C323.874 489.369 324.08 489.672 324.349 489.892C324.622 490.108 324.957 490.216 325.355 490.216ZM335.521 492.17C334.624 492.17 333.851 491.989 333.203 491.625C332.559 491.258 332.063 490.739 331.714 490.068C331.366 489.394 331.192 488.597 331.192 487.676C331.192 486.778 331.366 485.991 331.714 485.312C332.063 484.634 332.554 484.106 333.186 483.727C333.822 483.348 334.569 483.159 335.425 483.159C336 483.159 336.536 483.252 337.033 483.438C337.533 483.619 337.968 483.894 338.339 484.261C338.714 484.629 339.006 485.091 339.214 485.648C339.423 486.201 339.527 486.848 339.527 487.591V488.256H332.158V486.756H337.249C337.249 486.407 337.173 486.098 337.021 485.83C336.87 485.561 336.66 485.35 336.391 485.199C336.125 485.044 335.817 484.966 335.464 484.966C335.097 484.966 334.771 485.051 334.487 485.222C334.207 485.388 333.987 485.614 333.828 485.898C333.669 486.178 333.588 486.491 333.584 486.835V488.261C333.584 488.693 333.663 489.066 333.822 489.381C333.985 489.695 334.214 489.938 334.51 490.108C334.805 490.278 335.156 490.364 335.561 490.364C335.83 490.364 336.076 490.326 336.3 490.25C336.523 490.174 336.714 490.061 336.874 489.909C337.033 489.758 337.154 489.572 337.237 489.352L339.476 489.5C339.362 490.038 339.129 490.508 338.777 490.909C338.429 491.307 337.978 491.617 337.425 491.841C336.875 492.061 336.241 492.17 335.521 492.17ZM348.98 492H344.855V480.364H349.014C350.185 480.364 351.192 480.597 352.037 481.062C352.882 481.525 353.531 482.189 353.986 483.057C354.444 483.924 354.673 484.962 354.673 486.17C354.673 487.383 354.444 488.424 353.986 489.295C353.531 490.167 352.878 490.835 352.026 491.301C351.177 491.767 350.162 492 348.98 492ZM347.315 489.892H348.878C349.605 489.892 350.217 489.763 350.713 489.506C351.213 489.244 351.588 488.841 351.838 488.295C352.092 487.746 352.219 487.038 352.219 486.17C352.219 485.311 352.092 484.608 351.838 484.062C351.588 483.517 351.215 483.116 350.719 482.858C350.223 482.6 349.611 482.472 348.884 482.472H347.315V489.892ZM358.939 492.165C358.382 492.165 357.886 492.068 357.45 491.875C357.015 491.678 356.67 491.388 356.416 491.006C356.166 490.619 356.041 490.138 356.041 489.562C356.041 489.078 356.13 488.67 356.308 488.341C356.486 488.011 356.729 487.746 357.036 487.545C357.342 487.345 357.691 487.193 358.081 487.091C358.475 486.989 358.888 486.917 359.32 486.875C359.827 486.822 360.236 486.773 360.547 486.727C360.857 486.678 361.083 486.606 361.223 486.511C361.363 486.417 361.433 486.277 361.433 486.091V486.057C361.433 485.697 361.32 485.419 361.092 485.222C360.869 485.025 360.551 484.926 360.138 484.926C359.702 484.926 359.356 485.023 359.098 485.216C358.84 485.405 358.67 485.644 358.587 485.932L356.348 485.75C356.462 485.22 356.685 484.761 357.018 484.375C357.352 483.985 357.782 483.686 358.308 483.477C358.839 483.265 359.452 483.159 360.149 483.159C360.634 483.159 361.098 483.216 361.541 483.33C361.988 483.443 362.384 483.619 362.729 483.858C363.077 484.097 363.352 484.403 363.553 484.778C363.753 485.15 363.854 485.595 363.854 486.114V492H361.558V490.79H361.49C361.35 491.062 361.162 491.303 360.928 491.511C360.693 491.716 360.411 491.877 360.081 491.994C359.751 492.108 359.371 492.165 358.939 492.165ZM359.632 490.494C359.988 490.494 360.303 490.424 360.575 490.284C360.848 490.14 361.062 489.947 361.217 489.705C361.373 489.462 361.45 489.187 361.45 488.881V487.955C361.375 488.004 361.27 488.049 361.138 488.091C361.009 488.129 360.863 488.165 360.7 488.199C360.537 488.229 360.375 488.258 360.212 488.284C360.049 488.307 359.901 488.328 359.768 488.347C359.484 488.388 359.236 488.455 359.024 488.545C358.812 488.636 358.647 488.759 358.53 488.915C358.412 489.066 358.354 489.256 358.354 489.483C358.354 489.812 358.473 490.064 358.712 490.239C358.954 490.409 359.261 490.494 359.632 490.494ZM370.374 483.273V485.091H365.118V483.273H370.374ZM366.311 481.182H368.732V489.318C368.732 489.542 368.766 489.716 368.834 489.841C368.902 489.962 368.997 490.047 369.118 490.097C369.243 490.146 369.387 490.17 369.55 490.17C369.663 490.17 369.777 490.161 369.891 490.142C370.004 490.119 370.091 490.102 370.152 490.091L370.533 491.892C370.411 491.93 370.241 491.973 370.021 492.023C369.802 492.076 369.535 492.108 369.22 492.119C368.637 492.142 368.125 492.064 367.686 491.886C367.25 491.708 366.911 491.432 366.669 491.057C366.427 490.682 366.307 490.208 366.311 489.636V481.182ZM375.8 492.17C374.917 492.17 374.154 491.983 373.51 491.608C372.87 491.229 372.375 490.703 372.027 490.028C371.679 489.35 371.504 488.564 371.504 487.67C371.504 486.769 371.679 485.981 372.027 485.307C372.375 484.629 372.87 484.102 373.51 483.727C374.154 483.348 374.917 483.159 375.8 483.159C376.682 483.159 377.444 483.348 378.084 483.727C378.728 484.102 379.224 484.629 379.572 485.307C379.921 485.981 380.095 486.769 380.095 487.67C380.095 488.564 379.921 489.35 379.572 490.028C379.224 490.703 378.728 491.229 378.084 491.608C377.444 491.983 376.682 492.17 375.8 492.17ZM375.811 490.295C376.213 490.295 376.548 490.182 376.817 489.955C377.086 489.723 377.288 489.409 377.425 489.011C377.565 488.614 377.635 488.161 377.635 487.653C377.635 487.146 377.565 486.693 377.425 486.295C377.288 485.898 377.086 485.583 376.817 485.352C376.548 485.121 376.213 485.006 375.811 485.006C375.406 485.006 375.065 485.121 374.788 485.352C374.516 485.583 374.309 485.898 374.169 486.295C374.033 486.693 373.964 487.146 373.964 487.653C373.964 488.161 374.033 488.614 374.169 489.011C374.309 489.409 374.516 489.723 374.788 489.955C375.065 490.182 375.406 490.295 375.811 490.295ZM388.93 485.761L386.714 485.898C386.677 485.708 386.595 485.538 386.47 485.386C386.345 485.231 386.18 485.108 385.976 485.017C385.775 484.922 385.535 484.875 385.254 484.875C384.879 484.875 384.563 484.955 384.305 485.114C384.048 485.269 383.919 485.477 383.919 485.739C383.919 485.947 384.002 486.123 384.169 486.267C384.336 486.411 384.622 486.527 385.027 486.614L386.607 486.932C387.455 487.106 388.088 487.386 388.504 487.773C388.921 488.159 389.129 488.667 389.129 489.295C389.129 489.867 388.961 490.369 388.624 490.801C388.29 491.233 387.832 491.57 387.249 491.812C386.669 492.051 386 492.17 385.243 492.17C384.088 492.17 383.167 491.93 382.482 491.449C381.8 490.964 381.4 490.305 381.283 489.472L383.663 489.347C383.735 489.699 383.91 489.968 384.186 490.153C384.463 490.335 384.817 490.426 385.249 490.426C385.673 490.426 386.014 490.345 386.271 490.182C386.533 490.015 386.665 489.801 386.669 489.54C386.665 489.32 386.572 489.14 386.391 489C386.209 488.856 385.929 488.746 385.55 488.67L384.038 488.369C383.186 488.199 382.552 487.903 382.135 487.483C381.722 487.062 381.516 486.527 381.516 485.875C381.516 485.314 381.667 484.831 381.97 484.426C382.277 484.021 382.707 483.708 383.26 483.489C383.817 483.269 384.468 483.159 385.214 483.159C386.317 483.159 387.184 483.392 387.817 483.858C388.453 484.324 388.824 484.958 388.93 485.761Z" fill="white"/>
<path d="M297.65 418H295.013L299.031 406.364H302.201L306.212 418H303.576L300.661 409.023H300.57L297.65 418ZM297.485 413.426H303.712V415.347H297.485V413.426ZM307.567 418V409.273H309.914V410.795H310.005C310.164 410.254 310.431 409.845 310.806 409.568C311.181 409.288 311.613 409.148 312.102 409.148C312.223 409.148 312.353 409.155 312.494 409.17C312.634 409.186 312.757 409.206 312.863 409.233V411.381C312.749 411.347 312.592 411.316 312.391 411.29C312.191 411.263 312.007 411.25 311.84 411.25C311.484 411.25 311.166 411.328 310.886 411.483C310.609 411.634 310.389 411.847 310.227 412.119C310.067 412.392 309.988 412.706 309.988 413.062V418H307.567ZM317.651 418.17C316.757 418.17 315.988 417.981 315.344 417.602C314.704 417.22 314.212 416.689 313.867 416.011C313.526 415.333 313.356 414.553 313.356 413.67C313.356 412.777 313.528 411.992 313.873 411.318C314.221 410.64 314.716 410.112 315.356 409.733C315.996 409.35 316.757 409.159 317.64 409.159C318.401 409.159 319.068 409.297 319.64 409.574C320.212 409.85 320.665 410.239 320.998 410.739C321.331 411.239 321.515 411.826 321.549 412.5H319.265C319.201 412.064 319.03 411.714 318.754 411.449C318.481 411.18 318.123 411.045 317.68 411.045C317.305 411.045 316.977 411.148 316.697 411.352C316.42 411.553 316.204 411.847 316.049 412.233C315.894 412.619 315.816 413.087 315.816 413.636C315.816 414.193 315.892 414.667 316.043 415.057C316.199 415.447 316.416 415.744 316.697 415.949C316.977 416.153 317.305 416.256 317.68 416.256C317.956 416.256 318.204 416.199 318.424 416.085C318.647 415.972 318.831 415.807 318.975 415.591C319.123 415.371 319.219 415.108 319.265 414.801H321.549C321.511 415.468 321.329 416.055 321.004 416.562C320.682 417.066 320.237 417.46 319.668 417.744C319.1 418.028 318.428 418.17 317.651 418.17ZM325.519 412.955V418H323.099V406.364H325.451V410.812H325.553C325.75 410.297 326.068 409.894 326.508 409.602C326.947 409.307 327.498 409.159 328.161 409.159C328.767 409.159 329.296 409.292 329.746 409.557C330.201 409.818 330.553 410.195 330.803 410.688C331.057 411.176 331.182 411.761 331.178 412.443V418H328.758V412.875C328.762 412.337 328.625 411.919 328.349 411.619C328.076 411.32 327.693 411.17 327.201 411.17C326.871 411.17 326.58 411.241 326.326 411.381C326.076 411.521 325.879 411.725 325.735 411.994C325.595 412.259 325.523 412.58 325.519 412.955ZM333.083 418V409.273H335.504V418H333.083ZM334.299 408.148C333.939 408.148 333.63 408.028 333.373 407.79C333.119 407.547 332.992 407.258 332.992 406.92C332.992 406.587 333.119 406.301 333.373 406.062C333.63 405.82 333.939 405.699 334.299 405.699C334.659 405.699 334.966 405.82 335.219 406.062C335.477 406.301 335.606 406.587 335.606 406.92C335.606 407.258 335.477 407.547 335.219 407.79C334.966 408.028 334.659 408.148 334.299 408.148ZM345.579 409.273L342.528 418H339.8L336.749 409.273H339.306L341.119 415.517H341.21L343.016 409.273H345.579ZM350.479 418.17C349.597 418.17 348.834 417.983 348.19 417.608C347.549 417.229 347.055 416.703 346.707 416.028C346.358 415.35 346.184 414.564 346.184 413.67C346.184 412.769 346.358 411.981 346.707 411.307C347.055 410.629 347.549 410.102 348.19 409.727C348.834 409.348 349.597 409.159 350.479 409.159C351.362 409.159 352.123 409.348 352.763 409.727C353.407 410.102 353.904 410.629 354.252 411.307C354.601 411.981 354.775 412.769 354.775 413.67C354.775 414.564 354.601 415.35 354.252 416.028C353.904 416.703 353.407 417.229 352.763 417.608C352.123 417.983 351.362 418.17 350.479 418.17ZM350.491 416.295C350.892 416.295 351.228 416.182 351.496 415.955C351.765 415.723 351.968 415.409 352.104 415.011C352.245 414.614 352.315 414.161 352.315 413.653C352.315 413.146 352.245 412.693 352.104 412.295C351.968 411.898 351.765 411.583 351.496 411.352C351.228 411.121 350.892 411.006 350.491 411.006C350.085 411.006 349.745 411.121 349.468 411.352C349.195 411.583 348.989 411.898 348.849 412.295C348.712 412.693 348.644 413.146 348.644 413.653C348.644 414.161 348.712 414.614 348.849 415.011C348.989 415.409 349.195 415.723 349.468 415.955C349.745 416.182 350.085 416.295 350.491 416.295ZM363.61 411.761L361.394 411.898C361.356 411.708 361.275 411.538 361.15 411.386C361.025 411.231 360.86 411.108 360.656 411.017C360.455 410.922 360.214 410.875 359.934 410.875C359.559 410.875 359.243 410.955 358.985 411.114C358.728 411.269 358.599 411.477 358.599 411.739C358.599 411.947 358.682 412.123 358.849 412.267C359.015 412.411 359.301 412.527 359.707 412.614L361.286 412.932C362.135 413.106 362.767 413.386 363.184 413.773C363.601 414.159 363.809 414.667 363.809 415.295C363.809 415.867 363.64 416.369 363.303 416.801C362.97 417.233 362.512 417.57 361.928 417.812C361.349 418.051 360.68 418.17 359.923 418.17C358.767 418.17 357.847 417.93 357.161 417.449C356.479 416.964 356.08 416.305 355.962 415.472L358.343 415.347C358.415 415.699 358.589 415.968 358.866 416.153C359.142 416.335 359.496 416.426 359.928 416.426C360.353 416.426 360.693 416.345 360.951 416.182C361.212 416.015 361.345 415.801 361.349 415.54C361.345 415.32 361.252 415.14 361.07 415C360.888 414.856 360.608 414.746 360.229 414.67L358.718 414.369C357.866 414.199 357.231 413.903 356.815 413.483C356.402 413.062 356.195 412.527 356.195 411.875C356.195 411.314 356.347 410.831 356.65 410.426C356.957 410.021 357.387 409.708 357.94 409.489C358.496 409.269 359.148 409.159 359.894 409.159C360.996 409.159 361.864 409.392 362.496 409.858C363.133 410.324 363.504 410.958 363.61 411.761Z" fill="white"/>
<path d="M304.279 334.392V332.364H313.836V334.392H310.273V344H307.842V334.392H304.279ZM316.665 344.165C316.109 344.165 315.612 344.068 315.177 343.875C314.741 343.678 314.397 343.388 314.143 343.006C313.893 342.619 313.768 342.138 313.768 341.562C313.768 341.078 313.857 340.67 314.035 340.341C314.213 340.011 314.455 339.746 314.762 339.545C315.069 339.345 315.417 339.193 315.808 339.091C316.201 338.989 316.614 338.917 317.046 338.875C317.554 338.822 317.963 338.773 318.273 338.727C318.584 338.678 318.809 338.606 318.95 338.511C319.09 338.417 319.16 338.277 319.16 338.091V338.057C319.16 337.697 319.046 337.419 318.819 337.222C318.595 337.025 318.277 336.926 317.864 336.926C317.429 336.926 317.082 337.023 316.825 337.216C316.567 337.405 316.397 337.644 316.313 337.932L314.075 337.75C314.188 337.22 314.412 336.761 314.745 336.375C315.078 335.985 315.508 335.686 316.035 335.477C316.565 335.265 317.179 335.159 317.876 335.159C318.361 335.159 318.825 335.216 319.268 335.33C319.715 335.443 320.111 335.619 320.455 335.858C320.804 336.097 321.078 336.403 321.279 336.778C321.48 337.15 321.58 337.595 321.58 338.114V344H319.285V342.79H319.217C319.076 343.062 318.889 343.303 318.654 343.511C318.419 343.716 318.137 343.877 317.808 343.994C317.478 344.108 317.097 344.165 316.665 344.165ZM317.359 342.494C317.715 342.494 318.029 342.424 318.302 342.284C318.575 342.14 318.789 341.947 318.944 341.705C319.099 341.462 319.177 341.187 319.177 340.881V339.955C319.101 340.004 318.997 340.049 318.864 340.091C318.736 340.129 318.59 340.165 318.427 340.199C318.264 340.229 318.101 340.258 317.938 340.284C317.775 340.307 317.628 340.328 317.495 340.347C317.211 340.388 316.963 340.455 316.751 340.545C316.539 340.636 316.374 340.759 316.256 340.915C316.139 341.066 316.08 341.256 316.08 341.483C316.08 341.812 316.2 342.064 316.438 342.239C316.681 342.409 316.987 342.494 317.359 342.494ZM323.504 344V332.364H325.924V336.739H325.998C326.104 336.504 326.257 336.265 326.458 336.023C326.663 335.777 326.928 335.572 327.254 335.409C327.583 335.242 327.992 335.159 328.481 335.159C329.117 335.159 329.704 335.326 330.242 335.659C330.78 335.989 331.21 336.487 331.532 337.153C331.854 337.816 332.015 338.648 332.015 339.648C332.015 340.621 331.858 341.443 331.543 342.114C331.233 342.78 330.808 343.286 330.271 343.631C329.737 343.972 329.138 344.142 328.475 344.142C328.005 344.142 327.606 344.064 327.276 343.909C326.951 343.754 326.683 343.559 326.475 343.324C326.267 343.085 326.108 342.845 325.998 342.602H325.89V344H323.504ZM325.873 339.636C325.873 340.155 325.945 340.608 326.089 340.994C326.233 341.381 326.441 341.682 326.714 341.898C326.987 342.11 327.318 342.216 327.708 342.216C328.102 342.216 328.435 342.108 328.708 341.892C328.981 341.672 329.187 341.369 329.327 340.983C329.471 340.593 329.543 340.144 329.543 339.636C329.543 339.133 329.473 338.689 329.333 338.307C329.193 337.924 328.987 337.625 328.714 337.409C328.441 337.193 328.106 337.085 327.708 337.085C327.314 337.085 326.981 337.189 326.708 337.398C326.439 337.606 326.233 337.902 326.089 338.284C325.945 338.667 325.873 339.117 325.873 339.636ZM336.05 332.364V344H333.63V332.364H336.05ZM340.478 344.165C339.921 344.165 339.425 344.068 338.989 343.875C338.554 343.678 338.209 343.388 337.955 343.006C337.705 342.619 337.58 342.138 337.58 341.562C337.58 341.078 337.669 340.67 337.847 340.341C338.025 340.011 338.268 339.746 338.575 339.545C338.881 339.345 339.23 339.193 339.62 339.091C340.014 338.989 340.427 338.917 340.859 338.875C341.366 338.822 341.775 338.773 342.086 338.727C342.397 338.678 342.622 338.606 342.762 338.511C342.902 338.417 342.972 338.277 342.972 338.091V338.057C342.972 337.697 342.859 337.419 342.631 337.222C342.408 337.025 342.09 336.926 341.677 336.926C341.241 336.926 340.895 337.023 340.637 337.216C340.379 337.405 340.209 337.644 340.126 337.932L337.887 337.75C338.001 337.22 338.224 336.761 338.558 336.375C338.891 335.985 339.321 335.686 339.847 335.477C340.378 335.265 340.991 335.159 341.688 335.159C342.173 335.159 342.637 335.216 343.08 335.33C343.527 335.443 343.923 335.619 344.268 335.858C344.616 336.097 344.891 336.403 345.092 336.778C345.292 337.15 345.393 337.595 345.393 338.114V344H343.097V342.79H343.029C342.889 343.062 342.701 343.303 342.467 343.511C342.232 343.716 341.95 343.877 341.62 343.994C341.29 344.108 340.91 344.165 340.478 344.165ZM341.171 342.494C341.527 342.494 341.842 342.424 342.114 342.284C342.387 342.14 342.601 341.947 342.756 341.705C342.912 341.462 342.989 341.187 342.989 340.881V339.955C342.914 340.004 342.809 340.049 342.677 340.091C342.548 340.129 342.402 340.165 342.239 340.199C342.076 340.229 341.914 340.258 341.751 340.284C341.588 340.307 341.44 340.328 341.308 340.347C341.023 340.388 340.775 340.455 340.563 340.545C340.351 340.636 340.186 340.759 340.069 340.915C339.951 341.066 339.893 341.256 339.893 341.483C339.893 341.812 340.012 342.064 340.251 342.239C340.493 342.409 340.8 342.494 341.171 342.494ZM354.532 337.761L352.316 337.898C352.278 337.708 352.197 337.538 352.072 337.386C351.947 337.231 351.782 337.108 351.577 337.017C351.377 336.922 351.136 336.875 350.856 336.875C350.481 336.875 350.165 336.955 349.907 337.114C349.649 337.269 349.521 337.477 349.521 337.739C349.521 337.947 349.604 338.123 349.771 338.267C349.937 338.411 350.223 338.527 350.629 338.614L352.208 338.932C353.057 339.106 353.689 339.386 354.106 339.773C354.522 340.159 354.731 340.667 354.731 341.295C354.731 341.867 354.562 342.369 354.225 342.801C353.892 343.233 353.433 343.57 352.85 343.812C352.271 344.051 351.602 344.17 350.844 344.17C349.689 344.17 348.769 343.93 348.083 343.449C347.401 342.964 347.002 342.305 346.884 341.472L349.265 341.347C349.337 341.699 349.511 341.968 349.788 342.153C350.064 342.335 350.418 342.426 350.85 342.426C351.274 342.426 351.615 342.345 351.873 342.182C352.134 342.015 352.267 341.801 352.271 341.54C352.267 341.32 352.174 341.14 351.992 341C351.81 340.856 351.53 340.746 351.151 340.67L349.64 340.369C348.788 340.199 348.153 339.903 347.737 339.483C347.324 339.062 347.117 338.527 347.117 337.875C347.117 337.314 347.269 336.831 347.572 336.426C347.879 336.021 348.308 335.708 348.862 335.489C349.418 335.269 350.07 335.159 350.816 335.159C351.918 335.159 352.786 335.392 353.418 335.858C354.055 336.324 354.426 336.958 354.532 337.761Z" fill="black"/>
<path d="M293.238 270V258.364H297.829C298.708 258.364 299.458 258.521 300.079 258.835C300.704 259.146 301.179 259.587 301.505 260.159C301.835 260.727 301.999 261.396 301.999 262.165C301.999 262.937 301.833 263.602 301.499 264.159C301.166 264.712 300.683 265.136 300.05 265.432C299.422 265.727 298.66 265.875 297.766 265.875H294.692V263.898H297.369C297.838 263.898 298.228 263.833 298.539 263.705C298.85 263.576 299.081 263.383 299.232 263.125C299.388 262.867 299.465 262.547 299.465 262.165C299.465 261.778 299.388 261.453 299.232 261.188C299.081 260.922 298.848 260.722 298.533 260.585C298.223 260.445 297.831 260.375 297.357 260.375H295.698V270H293.238ZM299.522 264.705L302.414 270H299.698L296.869 264.705H299.522ZM307.529 270.17C306.631 270.17 305.859 269.989 305.211 269.625C304.567 269.258 304.071 268.739 303.722 268.068C303.374 267.394 303.2 266.597 303.2 265.676C303.2 264.778 303.374 263.991 303.722 263.312C304.071 262.634 304.561 262.106 305.194 261.727C305.83 261.348 306.576 261.159 307.433 261.159C308.008 261.159 308.544 261.252 309.04 261.438C309.54 261.619 309.976 261.894 310.347 262.261C310.722 262.629 311.014 263.091 311.222 263.648C311.431 264.201 311.535 264.848 311.535 265.591V266.256H304.165V264.756H309.256C309.256 264.407 309.181 264.098 309.029 263.83C308.878 263.561 308.667 263.35 308.398 263.199C308.133 263.044 307.825 262.966 307.472 262.966C307.105 262.966 306.779 263.051 306.495 263.222C306.215 263.388 305.995 263.614 305.836 263.898C305.677 264.178 305.595 264.491 305.592 264.835V266.261C305.592 266.693 305.671 267.066 305.83 267.381C305.993 267.695 306.222 267.938 306.518 268.108C306.813 268.278 307.164 268.364 307.569 268.364C307.838 268.364 308.084 268.326 308.308 268.25C308.531 268.174 308.722 268.061 308.881 267.909C309.04 267.758 309.162 267.572 309.245 267.352L311.484 267.5C311.37 268.038 311.137 268.508 310.785 268.909C310.436 269.307 309.986 269.617 309.433 269.841C308.883 270.061 308.249 270.17 307.529 270.17ZM317.046 273.455C316.262 273.455 315.59 273.347 315.029 273.131C314.472 272.919 314.029 272.629 313.7 272.261C313.37 271.894 313.156 271.481 313.058 271.023L315.296 270.722C315.364 270.896 315.472 271.059 315.62 271.21C315.768 271.362 315.963 271.483 316.205 271.574C316.451 271.669 316.751 271.716 317.103 271.716C317.629 271.716 318.063 271.587 318.404 271.33C318.749 271.076 318.921 270.65 318.921 270.051V268.455H318.819C318.713 268.697 318.554 268.926 318.342 269.142C318.129 269.358 317.857 269.534 317.523 269.67C317.19 269.807 316.792 269.875 316.33 269.875C315.675 269.875 315.078 269.723 314.54 269.42C314.006 269.114 313.58 268.646 313.262 268.017C312.948 267.384 312.79 266.585 312.79 265.619C312.79 264.631 312.951 263.805 313.273 263.142C313.595 262.479 314.023 261.983 314.558 261.653C315.095 261.324 315.684 261.159 316.325 261.159C316.813 261.159 317.222 261.242 317.552 261.409C317.881 261.572 318.147 261.777 318.347 262.023C318.552 262.265 318.709 262.504 318.819 262.739H318.91V261.273H321.313V270.085C321.313 270.828 321.131 271.449 320.768 271.949C320.404 272.449 319.9 272.824 319.256 273.074C318.616 273.328 317.879 273.455 317.046 273.455ZM317.097 268.057C317.487 268.057 317.817 267.96 318.086 267.767C318.359 267.57 318.567 267.29 318.711 266.926C318.859 266.559 318.933 266.119 318.933 265.608C318.933 265.097 318.861 264.653 318.717 264.278C318.573 263.9 318.364 263.606 318.092 263.398C317.819 263.189 317.487 263.085 317.097 263.085C316.7 263.085 316.364 263.193 316.092 263.409C315.819 263.621 315.612 263.917 315.472 264.295C315.332 264.674 315.262 265.112 315.262 265.608C315.262 266.112 315.332 266.547 315.472 266.915C315.616 267.278 315.823 267.561 316.092 267.761C316.364 267.958 316.7 268.057 317.097 268.057ZM323.239 270V261.273H325.66V270H323.239ZM324.455 260.148C324.095 260.148 323.787 260.028 323.529 259.79C323.275 259.547 323.148 259.258 323.148 258.92C323.148 258.587 323.275 258.301 323.529 258.062C323.787 257.82 324.095 257.699 324.455 257.699C324.815 257.699 325.122 257.82 325.376 258.062C325.633 258.301 325.762 258.587 325.762 258.92C325.762 259.258 325.633 259.547 325.376 259.79C325.122 260.028 324.815 260.148 324.455 260.148ZM334.86 263.761L332.644 263.898C332.606 263.708 332.525 263.538 332.4 263.386C332.275 263.231 332.11 263.108 331.906 263.017C331.705 262.922 331.464 262.875 331.184 262.875C330.809 262.875 330.493 262.955 330.235 263.114C329.978 263.269 329.849 263.477 329.849 263.739C329.849 263.947 329.932 264.123 330.099 264.267C330.265 264.411 330.551 264.527 330.957 264.614L332.536 264.932C333.385 265.106 334.017 265.386 334.434 265.773C334.851 266.159 335.059 266.667 335.059 267.295C335.059 267.867 334.89 268.369 334.553 268.801C334.22 269.233 333.762 269.57 333.178 269.812C332.599 270.051 331.93 270.17 331.173 270.17C330.017 270.17 329.097 269.93 328.411 269.449C327.729 268.964 327.33 268.305 327.212 267.472L329.593 267.347C329.665 267.699 329.839 267.968 330.116 268.153C330.392 268.335 330.746 268.426 331.178 268.426C331.603 268.426 331.943 268.345 332.201 268.182C332.462 268.015 332.595 267.801 332.599 267.54C332.595 267.32 332.502 267.14 332.32 267C332.138 266.856 331.858 266.746 331.479 266.67L329.968 266.369C329.116 266.199 328.481 265.903 328.065 265.483C327.652 265.062 327.445 264.527 327.445 263.875C327.445 263.314 327.597 262.831 327.9 262.426C328.207 262.021 328.637 261.708 329.19 261.489C329.746 261.269 330.398 261.159 331.144 261.159C332.246 261.159 333.114 261.392 333.746 261.858C334.383 262.324 334.754 262.958 334.86 263.761ZM341.225 261.273V263.091H335.969V261.273H341.225ZM337.163 259.182H339.583V267.318C339.583 267.542 339.617 267.716 339.685 267.841C339.754 267.962 339.848 268.047 339.969 268.097C340.094 268.146 340.238 268.17 340.401 268.17C340.515 268.17 340.629 268.161 340.742 268.142C340.856 268.119 340.943 268.102 341.004 268.091L341.384 269.892C341.263 269.93 341.093 269.973 340.873 270.023C340.653 270.076 340.386 270.108 340.072 270.119C339.488 270.142 338.977 270.064 338.538 269.886C338.102 269.708 337.763 269.432 337.521 269.057C337.278 268.682 337.159 268.208 337.163 267.636V259.182ZM342.802 270V261.273H345.148V262.795H345.239C345.398 262.254 345.665 261.845 346.04 261.568C346.415 261.288 346.847 261.148 347.336 261.148C347.457 261.148 347.588 261.155 347.728 261.17C347.868 261.186 347.991 261.206 348.097 261.233V263.381C347.984 263.347 347.826 263.316 347.626 263.29C347.425 263.263 347.241 263.25 347.075 263.25C346.719 263.25 346.4 263.328 346.12 263.483C345.844 263.634 345.624 263.847 345.461 264.119C345.302 264.392 345.222 264.706 345.222 265.062V270H342.802ZM352.886 270.17C352.003 270.17 351.24 269.983 350.596 269.608C349.956 269.229 349.461 268.703 349.113 268.028C348.764 267.35 348.59 266.564 348.59 265.67C348.59 264.769 348.764 263.981 349.113 263.307C349.461 262.629 349.956 262.102 350.596 261.727C351.24 261.348 352.003 261.159 352.886 261.159C353.768 261.159 354.53 261.348 355.17 261.727C355.814 262.102 356.31 262.629 356.658 263.307C357.007 263.981 357.181 264.769 357.181 265.67C357.181 266.564 357.007 267.35 356.658 268.028C356.31 268.703 355.814 269.229 355.17 269.608C354.53 269.983 353.768 270.17 352.886 270.17ZM352.897 268.295C353.299 268.295 353.634 268.182 353.903 267.955C354.172 267.723 354.374 267.409 354.511 267.011C354.651 266.614 354.721 266.161 354.721 265.653C354.721 265.146 354.651 264.693 354.511 264.295C354.374 263.898 354.172 263.583 353.903 263.352C353.634 263.121 353.299 263.006 352.897 263.006C352.492 263.006 352.151 263.121 351.874 263.352C351.602 263.583 351.395 263.898 351.255 264.295C351.119 264.693 351.05 265.146 351.05 265.653C351.05 266.161 351.119 266.614 351.255 267.011C351.395 267.409 351.602 267.723 351.874 267.955C352.151 268.182 352.492 268.295 352.897 268.295ZM366.016 263.761L363.8 263.898C363.763 263.708 363.681 263.538 363.556 263.386C363.431 263.231 363.266 263.108 363.062 263.017C362.861 262.922 362.621 262.875 362.34 262.875C361.965 262.875 361.649 262.955 361.391 263.114C361.134 263.269 361.005 263.477 361.005 263.739C361.005 263.947 361.088 264.123 361.255 264.267C361.422 264.411 361.708 264.527 362.113 264.614L363.692 264.932C364.541 265.106 365.174 265.386 365.59 265.773C366.007 266.159 366.215 266.667 366.215 267.295C366.215 267.867 366.047 268.369 365.71 268.801C365.376 269.233 364.918 269.57 364.335 269.812C363.755 270.051 363.086 270.17 362.329 270.17C361.174 270.17 360.253 269.93 359.567 269.449C358.886 268.964 358.486 268.305 358.369 267.472L360.749 267.347C360.821 267.699 360.996 267.968 361.272 268.153C361.549 268.335 361.903 268.426 362.335 268.426C362.759 268.426 363.1 268.345 363.357 268.182C363.619 268.015 363.751 267.801 363.755 267.54C363.751 267.32 363.658 267.14 363.477 267C363.295 266.856 363.014 266.746 362.636 266.67L361.124 266.369C360.272 266.199 359.638 265.903 359.221 265.483C358.808 265.062 358.602 264.527 358.602 263.875C358.602 263.314 358.753 262.831 359.056 262.426C359.363 262.021 359.793 261.708 360.346 261.489C360.903 261.269 361.554 261.159 362.3 261.159C363.403 261.159 364.27 261.392 364.903 261.858C365.539 262.324 365.91 262.958 366.016 263.761Z" fill="black"/>
<path d="M308.364 188.438H305.876C305.83 188.116 305.737 187.83 305.597 187.58C305.457 187.326 305.277 187.11 305.058 186.932C304.838 186.754 304.584 186.617 304.296 186.523C304.012 186.428 303.703 186.381 303.37 186.381C302.768 186.381 302.243 186.53 301.796 186.83C301.349 187.125 301.003 187.557 300.756 188.125C300.51 188.689 300.387 189.375 300.387 190.182C300.387 191.011 300.51 191.708 300.756 192.273C301.006 192.837 301.355 193.263 301.802 193.551C302.249 193.839 302.766 193.983 303.353 193.983C303.683 193.983 303.987 193.939 304.268 193.852C304.552 193.765 304.804 193.638 305.023 193.472C305.243 193.301 305.425 193.095 305.569 192.852C305.717 192.61 305.819 192.333 305.876 192.023L308.364 192.034C308.3 192.568 308.139 193.083 307.881 193.58C307.628 194.072 307.285 194.513 306.853 194.903C306.425 195.29 305.914 195.597 305.319 195.824C304.728 196.047 304.059 196.159 303.313 196.159C302.275 196.159 301.347 195.924 300.529 195.455C299.715 194.985 299.071 194.305 298.597 193.415C298.128 192.525 297.893 191.447 297.893 190.182C297.893 188.913 298.131 187.833 298.609 186.943C299.086 186.053 299.734 185.375 300.552 184.909C301.37 184.439 302.29 184.205 303.313 184.205C303.987 184.205 304.612 184.299 305.188 184.489C305.768 184.678 306.281 184.955 306.728 185.318C307.175 185.678 307.539 186.119 307.819 186.642C308.103 187.165 308.285 187.763 308.364 188.438ZM312.572 196.165C312.015 196.165 311.519 196.068 311.083 195.875C310.647 195.678 310.303 195.388 310.049 195.006C309.799 194.619 309.674 194.138 309.674 193.562C309.674 193.078 309.763 192.67 309.941 192.341C310.119 192.011 310.362 191.746 310.668 191.545C310.975 191.345 311.324 191.193 311.714 191.091C312.108 190.989 312.521 190.917 312.952 190.875C313.46 190.822 313.869 190.773 314.18 190.727C314.49 190.678 314.716 190.606 314.856 190.511C314.996 190.417 315.066 190.277 315.066 190.091V190.057C315.066 189.697 314.952 189.419 314.725 189.222C314.502 189.025 314.183 188.926 313.771 188.926C313.335 188.926 312.988 189.023 312.731 189.216C312.473 189.405 312.303 189.644 312.219 189.932L309.981 189.75C310.094 189.22 310.318 188.761 310.651 188.375C310.985 187.985 311.415 187.686 311.941 187.477C312.471 187.265 313.085 187.159 313.782 187.159C314.267 187.159 314.731 187.216 315.174 187.33C315.621 187.443 316.017 187.619 316.362 187.858C316.71 188.097 316.985 188.403 317.185 188.778C317.386 189.15 317.487 189.595 317.487 190.114V196H315.191V194.79H315.123C314.983 195.062 314.795 195.303 314.56 195.511C314.326 195.716 314.043 195.877 313.714 195.994C313.384 196.108 313.004 196.165 312.572 196.165ZM313.265 194.494C313.621 194.494 313.935 194.424 314.208 194.284C314.481 194.14 314.695 193.947 314.85 193.705C315.005 193.462 315.083 193.187 315.083 192.881V191.955C315.007 192.004 314.903 192.049 314.771 192.091C314.642 192.129 314.496 192.165 314.333 192.199C314.17 192.229 314.007 192.258 313.844 192.284C313.682 192.307 313.534 192.328 313.401 192.347C313.117 192.388 312.869 192.455 312.657 192.545C312.445 192.636 312.28 192.759 312.163 192.915C312.045 193.066 311.987 193.256 311.987 193.483C311.987 193.812 312.106 194.064 312.344 194.239C312.587 194.409 312.894 194.494 313.265 194.494ZM319.364 196V187.273H321.671V188.812H321.773C321.955 188.301 322.258 187.898 322.683 187.602C323.107 187.307 323.614 187.159 324.205 187.159C324.804 187.159 325.313 187.309 325.734 187.608C326.154 187.903 326.434 188.305 326.575 188.812H326.665C326.844 188.312 327.165 187.913 327.631 187.614C328.101 187.311 328.656 187.159 329.296 187.159C330.111 187.159 330.772 187.419 331.279 187.938C331.79 188.453 332.046 189.184 332.046 190.131V196H329.631V190.608C329.631 190.123 329.503 189.759 329.245 189.517C328.987 189.275 328.665 189.153 328.279 189.153C327.84 189.153 327.497 189.294 327.251 189.574C327.004 189.85 326.881 190.216 326.881 190.67V196H324.535V190.557C324.535 190.129 324.412 189.788 324.165 189.534C323.923 189.28 323.603 189.153 323.205 189.153C322.936 189.153 322.694 189.222 322.478 189.358C322.266 189.491 322.097 189.678 321.972 189.92C321.847 190.159 321.785 190.439 321.785 190.761V196H319.364ZM333.958 199.273V187.273H336.344V188.739H336.452C336.558 188.504 336.712 188.265 336.913 188.023C337.117 187.777 337.382 187.572 337.708 187.409C338.038 187.242 338.447 187.159 338.935 187.159C339.572 187.159 340.159 187.326 340.697 187.659C341.235 187.989 341.665 188.487 341.987 189.153C342.308 189.816 342.469 190.648 342.469 191.648C342.469 192.621 342.312 193.443 341.998 194.114C341.687 194.78 341.263 195.286 340.725 195.631C340.191 195.972 339.593 196.142 338.93 196.142C338.46 196.142 338.06 196.064 337.731 195.909C337.405 195.754 337.138 195.559 336.93 195.324C336.721 195.085 336.562 194.845 336.452 194.602H336.379V199.273H333.958ZM336.327 191.636C336.327 192.155 336.399 192.608 336.543 192.994C336.687 193.381 336.896 193.682 337.168 193.898C337.441 194.11 337.772 194.216 338.163 194.216C338.557 194.216 338.89 194.108 339.163 193.892C339.435 193.672 339.642 193.369 339.782 192.983C339.926 192.593 339.998 192.144 339.998 191.636C339.998 191.133 339.928 190.689 339.788 190.307C339.647 189.924 339.441 189.625 339.168 189.409C338.896 189.193 338.56 189.085 338.163 189.085C337.769 189.085 337.435 189.189 337.163 189.398C336.894 189.606 336.687 189.902 336.543 190.284C336.399 190.667 336.327 191.117 336.327 191.636ZM348.026 196.17C347.144 196.17 346.38 195.983 345.737 195.608C345.096 195.229 344.602 194.703 344.254 194.028C343.905 193.35 343.731 192.564 343.731 191.67C343.731 190.769 343.905 189.981 344.254 189.307C344.602 188.629 345.096 188.102 345.737 187.727C346.38 187.348 347.144 187.159 348.026 187.159C348.909 187.159 349.67 187.348 350.31 187.727C350.954 188.102 351.451 188.629 351.799 189.307C352.147 189.981 352.322 190.769 352.322 191.67C352.322 192.564 352.147 193.35 351.799 194.028C351.451 194.703 350.954 195.229 350.31 195.608C349.67 195.983 348.909 196.17 348.026 196.17ZM348.038 194.295C348.439 194.295 348.774 194.182 349.043 193.955C349.312 193.723 349.515 193.409 349.651 193.011C349.791 192.614 349.862 192.161 349.862 191.653C349.862 191.146 349.791 190.693 349.651 190.295C349.515 189.898 349.312 189.583 349.043 189.352C348.774 189.121 348.439 189.006 348.038 189.006C347.632 189.006 347.291 189.121 347.015 189.352C346.742 189.583 346.536 189.898 346.396 190.295C346.259 190.693 346.191 191.146 346.191 191.653C346.191 192.161 346.259 192.614 346.396 193.011C346.536 193.409 346.742 193.723 347.015 193.955C347.291 194.182 347.632 194.295 348.038 194.295ZM361.157 189.761L358.941 189.898C358.903 189.708 358.822 189.538 358.697 189.386C358.572 189.231 358.407 189.108 358.202 189.017C358.002 188.922 357.761 188.875 357.481 188.875C357.106 188.875 356.79 188.955 356.532 189.114C356.274 189.269 356.146 189.477 356.146 189.739C356.146 189.947 356.229 190.123 356.396 190.267C356.562 190.411 356.848 190.527 357.254 190.614L358.833 190.932C359.682 191.106 360.314 191.386 360.731 191.773C361.147 192.159 361.356 192.667 361.356 193.295C361.356 193.867 361.187 194.369 360.85 194.801C360.517 195.233 360.058 195.57 359.475 195.812C358.896 196.051 358.227 196.17 357.469 196.17C356.314 196.17 355.394 195.93 354.708 195.449C354.026 194.964 353.627 194.305 353.509 193.472L355.89 193.347C355.962 193.699 356.136 193.968 356.413 194.153C356.689 194.335 357.043 194.426 357.475 194.426C357.899 194.426 358.24 194.345 358.498 194.182C358.759 194.015 358.892 193.801 358.896 193.54C358.892 193.32 358.799 193.14 358.617 193C358.435 192.856 358.155 192.746 357.776 192.67L356.265 192.369C355.413 192.199 354.778 191.903 354.362 191.483C353.949 191.062 353.742 190.527 353.742 189.875C353.742 189.314 353.894 188.831 354.197 188.426C354.504 188.021 354.933 187.708 355.487 187.489C356.043 187.269 356.695 187.159 357.441 187.159C358.543 187.159 359.411 187.392 360.043 187.858C360.68 188.324 361.051 188.958 361.157 189.761Z" fill="black"/>
<path d="M308.199 122V110.364H312.858C313.714 110.364 314.428 110.491 315 110.744C315.572 110.998 316.002 111.35 316.29 111.801C316.578 112.248 316.722 112.763 316.722 113.347C316.722 113.801 316.631 114.201 316.449 114.545C316.267 114.886 316.017 115.167 315.699 115.386C315.384 115.602 315.025 115.756 314.619 115.847V115.96C315.063 115.979 315.477 116.104 315.864 116.335C316.254 116.566 316.57 116.89 316.812 117.307C317.055 117.72 317.176 118.212 317.176 118.784C317.176 119.402 317.023 119.953 316.716 120.438C316.413 120.919 315.964 121.299 315.369 121.58C314.775 121.86 314.042 122 313.17 122H308.199ZM310.659 119.989H312.665C313.35 119.989 313.85 119.858 314.165 119.597C314.479 119.331 314.636 118.979 314.636 118.54C314.636 118.218 314.559 117.934 314.403 117.688C314.248 117.441 314.027 117.248 313.739 117.108C313.455 116.968 313.116 116.898 312.722 116.898H310.659V119.989ZM310.659 115.233H312.483C312.82 115.233 313.119 115.174 313.381 115.057C313.646 114.936 313.854 114.765 314.006 114.545C314.161 114.326 314.239 114.062 314.239 113.756C314.239 113.335 314.089 112.996 313.79 112.739C313.494 112.481 313.074 112.352 312.528 112.352H310.659V115.233ZM320.226 125.273C319.919 125.273 319.631 125.248 319.362 125.199C319.097 125.153 318.877 125.095 318.703 125.023L319.249 123.216C319.533 123.303 319.788 123.35 320.016 123.358C320.247 123.366 320.446 123.313 320.612 123.199C320.783 123.085 320.921 122.892 321.027 122.619L321.169 122.25L318.038 113.273H320.584L322.391 119.682H322.482L324.305 113.273H326.868L323.476 122.943C323.313 123.413 323.091 123.822 322.811 124.17C322.535 124.523 322.184 124.794 321.76 124.983C321.336 125.176 320.824 125.273 320.226 125.273ZM332.749 113.273V115.091H327.493V113.273H332.749ZM328.686 111.182H331.107V119.318C331.107 119.542 331.141 119.716 331.209 119.841C331.277 119.962 331.372 120.047 331.493 120.097C331.618 120.146 331.762 120.17 331.925 120.17C332.038 120.17 332.152 120.161 332.266 120.142C332.379 120.119 332.466 120.102 332.527 120.091L332.908 121.892C332.786 121.93 332.616 121.973 332.396 122.023C332.177 122.076 331.91 122.108 331.595 122.119C331.012 122.142 330.5 122.064 330.061 121.886C329.625 121.708 329.286 121.432 329.044 121.057C328.802 120.682 328.682 120.208 328.686 119.636V111.182ZM338.209 122.17C337.311 122.17 336.538 121.989 335.891 121.625C335.247 121.258 334.75 120.739 334.402 120.068C334.054 119.394 333.879 118.597 333.879 117.676C333.879 116.778 334.054 115.991 334.402 115.312C334.75 114.634 335.241 114.106 335.874 113.727C336.51 113.348 337.256 113.159 338.112 113.159C338.688 113.159 339.224 113.252 339.72 113.438C340.22 113.619 340.656 113.894 341.027 114.261C341.402 114.629 341.694 115.091 341.902 115.648C342.11 116.201 342.214 116.848 342.214 117.591V118.256H334.845V116.756H339.936C339.936 116.407 339.86 116.098 339.709 115.83C339.557 115.561 339.347 115.35 339.078 115.199C338.813 115.044 338.504 114.966 338.152 114.966C337.785 114.966 337.459 115.051 337.175 115.222C336.894 115.388 336.675 115.614 336.516 115.898C336.357 116.178 336.275 116.491 336.271 116.835V118.261C336.271 118.693 336.351 119.066 336.51 119.381C336.673 119.695 336.902 119.938 337.197 120.108C337.493 120.278 337.843 120.364 338.249 120.364C338.518 120.364 338.764 120.326 338.987 120.25C339.211 120.174 339.402 120.061 339.561 119.909C339.72 119.758 339.841 119.572 339.925 119.352L342.163 119.5C342.05 120.038 341.817 120.508 341.464 120.909C341.116 121.307 340.665 121.617 340.112 121.841C339.563 122.061 338.929 122.17 338.209 122.17ZM351.055 115.761L348.839 115.898C348.802 115.708 348.72 115.538 348.595 115.386C348.47 115.231 348.305 115.108 348.101 115.017C347.9 114.922 347.66 114.875 347.379 114.875C347.004 114.875 346.688 114.955 346.43 115.114C346.173 115.269 346.044 115.477 346.044 115.739C346.044 115.947 346.127 116.123 346.294 116.267C346.461 116.411 346.747 116.527 347.152 116.614L348.732 116.932C349.58 117.106 350.213 117.386 350.629 117.773C351.046 118.159 351.254 118.667 351.254 119.295C351.254 119.867 351.086 120.369 350.749 120.801C350.415 121.233 349.957 121.57 349.374 121.812C348.794 122.051 348.125 122.17 347.368 122.17C346.213 122.17 345.292 121.93 344.607 121.449C343.925 120.964 343.525 120.305 343.408 119.472L345.788 119.347C345.86 119.699 346.035 119.968 346.311 120.153C346.588 120.335 346.942 120.426 347.374 120.426C347.798 120.426 348.139 120.345 348.396 120.182C348.658 120.015 348.79 119.801 348.794 119.54C348.79 119.32 348.697 119.14 348.516 119C348.334 118.856 348.054 118.746 347.675 118.67L346.163 118.369C345.311 118.199 344.677 117.903 344.26 117.483C343.847 117.062 343.641 116.527 343.641 115.875C343.641 115.314 343.792 114.831 344.095 114.426C344.402 114.021 344.832 113.708 345.385 113.489C345.942 113.269 346.593 113.159 347.339 113.159C348.442 113.159 349.309 113.392 349.942 113.858C350.578 114.324 350.949 114.958 351.055 115.761Z" fill="white"/>
<path d="M315.496 48V36.3636H320.155C321.011 36.3636 321.725 36.4905 322.297 36.7443C322.869 36.9981 323.299 37.3504 323.587 37.8011C323.875 38.2481 324.018 38.7633 324.018 39.3466C324.018 39.8011 323.928 40.2008 323.746 40.5455C323.564 40.8864 323.314 41.1667 322.996 41.3864C322.681 41.6023 322.321 41.7557 321.916 41.8466V41.9602C322.359 41.9792 322.774 42.1042 323.161 42.3352C323.551 42.5663 323.867 42.8902 324.109 43.3068C324.352 43.7197 324.473 44.2121 324.473 44.7841C324.473 45.4015 324.32 45.9527 324.013 46.4375C323.71 46.9186 323.261 47.2992 322.666 47.5795C322.071 47.8598 321.339 48 320.467 48H315.496ZM317.956 45.9886H319.962C320.647 45.9886 321.147 45.858 321.462 45.5966C321.776 45.3314 321.933 44.9792 321.933 44.5398C321.933 44.2178 321.856 43.9337 321.7 43.6875C321.545 43.4413 321.323 43.2481 321.036 43.108C320.751 42.9678 320.412 42.8977 320.018 42.8977H317.956V45.9886ZM317.956 41.233H319.78C320.117 41.233 320.416 41.1742 320.678 41.0568C320.943 40.9356 321.151 40.7652 321.303 40.5455C321.458 40.3258 321.536 40.0625 321.536 39.7557C321.536 39.3352 321.386 38.9962 321.087 38.7386C320.791 38.4811 320.371 38.3523 319.825 38.3523H317.956V41.233ZM326.028 48V39.2727H328.449V48H326.028ZM327.244 38.1477C326.884 38.1477 326.576 38.0284 326.318 37.7898C326.064 37.5473 325.938 37.2576 325.938 36.9205C325.938 36.5871 326.064 36.3011 326.318 36.0625C326.576 35.8201 326.884 35.6989 327.244 35.6989C327.604 35.6989 327.911 35.8201 328.165 36.0625C328.422 36.3011 328.551 36.5871 328.551 36.9205C328.551 37.2576 328.422 37.5473 328.165 37.7898C327.911 38.0284 327.604 38.1477 327.244 38.1477ZM335.03 39.2727V41.0909H329.774V39.2727H335.03ZM330.967 37.1818H333.388V45.3182C333.388 45.5417 333.422 45.7159 333.49 45.8409C333.558 45.9621 333.653 46.0473 333.774 46.0966C333.899 46.1458 334.043 46.1705 334.206 46.1705C334.32 46.1705 334.433 46.161 334.547 46.142C334.661 46.1193 334.748 46.1023 334.808 46.0909L335.189 47.892C335.068 47.9299 334.897 47.9735 334.678 48.0227C334.458 48.0758 334.191 48.108 333.876 48.1193C333.293 48.142 332.782 48.0644 332.342 47.8864C331.907 47.7083 331.568 47.4318 331.325 47.0568C331.083 46.6818 330.964 46.2083 330.967 45.6364V37.1818ZM343.759 41.7614L341.543 41.8977C341.505 41.7083 341.423 41.5379 341.298 41.3864C341.173 41.2311 341.009 41.108 340.804 41.017C340.603 40.9223 340.363 40.875 340.082 40.875C339.707 40.875 339.391 40.9545 339.134 41.1136C338.876 41.2689 338.747 41.4773 338.747 41.7386C338.747 41.947 338.83 42.1231 338.997 42.267C339.164 42.411 339.45 42.5265 339.855 42.6136L341.435 42.9318C342.283 43.1061 342.916 43.3864 343.332 43.7727C343.749 44.1591 343.957 44.6667 343.957 45.2955C343.957 45.8674 343.789 46.3693 343.452 46.8011C343.118 47.233 342.66 47.5701 342.077 47.8125C341.497 48.0511 340.829 48.1705 340.071 48.1705C338.916 48.1705 337.995 47.9299 337.31 47.4489C336.628 46.964 336.228 46.3049 336.111 45.4716L338.491 45.3466C338.563 45.6989 338.738 45.9678 339.014 46.1534C339.291 46.3352 339.645 46.4261 340.077 46.4261C340.501 46.4261 340.842 46.3447 341.099 46.1818C341.361 46.0152 341.493 45.8011 341.497 45.5398C341.493 45.3201 341.401 45.1402 341.219 45C341.037 44.8561 340.757 44.7462 340.378 44.6705L338.866 44.3693C338.014 44.1989 337.38 43.9034 336.963 43.483C336.55 43.0625 336.344 42.5265 336.344 41.875C336.344 41.3144 336.495 40.8314 336.798 40.4261C337.105 40.0208 337.535 39.7083 338.088 39.4886C338.645 39.2689 339.296 39.1591 340.043 39.1591C341.145 39.1591 342.012 39.392 342.645 39.858C343.281 40.3239 343.652 40.9583 343.759 41.7614Z" fill="white"/>
</svg>
